<?xml version="1.0" encoding="utf-8" ?><svg xmlns="http://www.w3.org/2000/svg" xmlns:xlink="http://www.w3.org/1999/xlink" width="1024" height="1024" viewBox="0 0 1024 1024"><path fill="#101478" d="M558.184 218.016L558.737 217.559C564.512 212.733 569.5 206.554 575.213 201.479C638.499 145.255 732.269 139.408 801.268 189.217C880.209 246.202 896.039 357.611 837.749 435.261C833.237 441.295 828.116 446.948 823.582 452.931C832.851 497.766 833.288 531.739 823.582 576.738C911.13 617.152 908.992 734.56 820.461 769.722C793.421 780.462 755.877 776.043 731.495 760.993L731.53 803.143C731.535 832.115 729.135 867.682 690.271 867.411L336.772 867.293C310.59 867.118 285.485 866.266 279.528 835.629C278.487 830.275 278.053 828.888 273.938 825.499C275.275 823.433 276.654 821.149 278.205 819.264C278.457 792.576 278.741 762.423 278.205 735.795C224.959 675.304 193.246 594.617 195.693 513.789C195.937 505.72 196.562 496.279 195.914 488.413L195.828 487.439C169.958 456.254 176.608 443.053 176.631 404.355L176.626 268.417C176.516 235.663 176.445 196.931 222.9 196.409L438.967 196.096C471.621 196.103 475.949 192.669 500.98 215.046C517.39 212.603 541.886 218.605 558.184 218.016ZM314.076 819.264L313.828 819.037C311.897 818.942 309.519 820.923 308.059 822.109L307.537 822.539L307.236 822.181C307.451 821.501 312.782 815.637 313.798 815.184L310.835 814.476C291.784 821.033 278.428 836.337 299.255 851.999C292.48 835.583 300.376 827.397 314.076 819.264Z"/><path fill="#101478" d="M558.184 218.016L558.737 217.559C564.512 212.733 569.5 206.554 575.213 201.479C638.499 145.255 732.269 139.408 801.268 189.217C880.209 246.202 896.039 357.611 837.749 435.261C833.237 441.295 828.116 446.948 823.582 452.931C816.127 458.905 804.267 475.332 795.245 470.897C791.974 473.898 771.659 489.169 768.284 485.974C751.426 510.12 725.846 527.64 695.863 530.469C695.914 549 691.894 576.105 665.102 566.614C648.43 560.707 650.217 544.671 650.101 530.469C609.161 523.174 580.375 497.046 567.033 457.422C551.093 454.343 530.755 418.153 525.036 400.757C524.291 404.599 525.847 410.117 522.124 412.396C513.163 413.015 516.535 400.082 516.541 393.571L516.749 312.595C517.103 276.202 535.977 245.971 558.184 218.016Z"/><defs><linearGradient id="gradient_0" gradientUnits="userSpaceOnUse" x1="781.74371" y1="479.01834" x2="597.68646" y2="194.82216"><stop offset="0" stop-color="#C2D8F6"/><stop offset="1" stop-color="#FFFFFD"/></linearGradient></defs><path fill="url(#gradient_0)" d="M558.184 218.016L558.737 217.559C564.512 212.733 569.5 206.554 575.213 201.479C638.499 145.255 732.269 139.408 801.268 189.217C880.209 246.202 896.039 357.611 837.749 435.261C833.237 441.295 828.116 446.948 823.582 452.931C816.127 458.905 804.267 475.332 795.245 470.897C791.974 473.898 771.659 489.169 768.284 485.974C782.506 466.044 786.081 444.341 785.076 420.344C794.935 419.193 801.465 414.527 802.738 403.809C803.758 395.214 803.588 340.753 801.589 333.667C799.613 326.664 792.739 323.345 786.906 320.032C772.648 232.471 679.863 186.054 606.646 238.943C578.938 258.958 565.74 287.904 560.824 321.235C543.19 329.595 546.301 339.229 546.118 356.133C546.535 380.83 536.538 416.736 564.488 420.344C564.307 436.547 563.783 441.412 567.033 457.422C551.093 454.343 530.755 418.153 525.036 400.757C524.291 404.599 525.847 410.117 522.124 412.396C513.163 413.015 516.535 400.082 516.541 393.571L516.749 312.595C517.103 276.202 535.977 245.971 558.184 218.016Z"/><path fill="#101478" d="M558.184 218.016L558.737 217.559C564.512 212.733 569.5 206.554 575.213 201.479C638.499 145.255 732.269 139.408 801.268 189.217C880.209 246.202 896.039 357.611 837.749 435.261C833.237 441.295 828.116 446.948 823.582 452.931C816.127 458.905 804.267 475.332 795.245 470.897C795.643 464.221 805.973 457.898 810.621 453.606C915.017 357.187 857.744 182.23 722.89 165.692C683.326 158.283 623.269 170.675 592.091 198.301C563.304 216.24 534.473 262.115 526.46 293.784C524.26 302.479 524.954 315.366 524.991 324.739L525.076 376.014C525.082 381.63 525.492 395.865 525.036 400.757C524.291 404.599 525.847 410.117 522.124 412.396C513.163 413.015 516.535 400.082 516.541 393.571L516.749 312.595C517.103 276.202 535.977 245.971 558.184 218.016Z"/><path fill="#FCFDFC" d="M592.091 198.301C623.269 170.675 683.326 158.283 722.89 165.692L722.43 166.849C709.808 169.311 660.298 166.539 650.857 174.053C647.598 169.832 645.709 171.628 645.045 176.109C638.553 179.445 610.916 194.122 608.019 193.036C606.213 192.359 612.855 190.775 613.133 190.663C614.922 189.942 613.682 188.113 614.184 187.89C623.626 183.69 621.563 184.071 612.717 186.198L612.237 186.859C608.665 191.711 602.069 189.635 605.081 195.659C602.669 197.623 599.165 200.857 596.388 201.685L595.795 201.415C596.596 199.666 601.784 195.907 602.98 193.546C598.994 194.751 596.324 197.218 592.091 198.301Z"/><path fill="#FA8C83" d="M612.491 422.736C611.956 419.833 612.377 410.839 612.413 407.494L612.524 378.937C612.503 369.919 611.557 358.998 612.102 350.33C616.064 287.341 707.272 275.306 731.495 330.417C740.553 346.236 738.827 404.599 737.355 424.016C734.978 455.384 697.31 484.392 666.662 477.255C656.516 479.493 639.233 469.414 631.922 462.813C620.475 452.634 612.713 438.23 612.491 422.736Z"/><path fill="#FD5F54" d="M660.745 413.574C664.377 413.202 705.34 412.802 707.296 413.408C708.891 414.79 708.587 415.6 709.08 418.058L709.657 417.959C719.224 410.89 708.374 395.213 709.482 391.605C714.149 376.404 720.9 362.36 726.594 347.604C735.735 323.913 728.695 337.656 725.731 325.489C727.412 327.201 729.377 329.601 731.495 330.417C740.553 346.236 738.827 404.599 737.355 424.016C734.978 455.384 697.31 484.392 666.662 477.255C670.832 476.033 685.354 478.804 693.038 474.304C698.327 471.208 708.299 448.314 706.243 444.086C701.102 441.101 678.218 442.837 671.226 441.611C677.373 441.481 702.742 442.31 707.098 440.9C716.133 431.725 689.112 434.15 686.847 434.124C689.095 433.008 707.48 430.136 709.074 436.749L709.219 437.364C709.945 433.789 710.243 423.823 707.989 421.289C704.282 422.995 679.629 421.991 674.729 421.235C668.687 421.22 638.301 425.519 647.032 413.574C651.866 413.707 655.882 413.77 660.745 413.574Z"/><path fill="#101478" d="M660.745 413.574C667.415 413.564 704.339 412.614 707.377 415.103C712.366 425.533 681.744 421.239 674.729 421.235C668.687 421.22 638.301 425.519 647.032 413.574C651.866 413.707 655.882 413.77 660.745 413.574Z"/><path fill="#FCFDFC" d="M612.491 422.736C611.956 419.833 612.377 410.839 612.413 407.494L612.524 378.937C612.503 369.919 611.557 358.998 612.102 350.33C616.064 287.341 707.272 275.306 731.495 330.417C729.377 329.601 727.412 327.201 725.731 325.489C692.774 286.369 621.266 304.834 619.894 362.147L619.879 399.29C619.854 418.228 618.352 437.725 628.538 454.659C629.709 456.606 632.746 460.865 631.922 462.813C620.475 452.634 612.713 438.23 612.491 422.736Z"/><defs><linearGradient id="gradient_1" gradientUnits="userSpaceOnUse" x1="629.58551" y1="405.64996" x2="612.70758" y2="405.93927"><stop offset="0" stop-color="#FFECEE"/><stop offset="1" stop-color="white"/></linearGradient></defs><path fill="url(#gradient_1)" d="M612.491 422.736C612.944 419.736 612.58 409.425 612.544 405.62L612.506 376.414C612.479 373.457 612.136 365.522 612.876 363.102L613.171 363.214L613.22 365.961C613.171 360.001 612.356 348.661 615.81 344.661L615.399 341.742L615.868 341.388C616.741 342.789 618.479 370.185 619.148 376.821C619.163 374.207 618.893 363.698 619.894 362.147L619.879 399.29C619.854 418.228 618.352 437.725 628.538 454.659C629.709 456.606 632.746 460.865 631.922 462.813C620.475 452.634 612.713 438.23 612.491 422.736Z"/><path fill="#FCFDFC" d="M617.5 387.835L617.768 387.947C620.389 393.277 620.145 419.185 619.268 426.425C618.476 423.714 619.236 421.168 618.21 419.458L617.5 421.235C617.743 423.292 618.342 426.973 617.297 428.704C615.93 417.804 618.42 399.906 617.5 387.835Z"/><path fill="#101478" d="M686.847 434.124C689.112 434.15 716.133 431.725 707.098 440.9C702.742 442.31 677.373 441.481 671.226 441.611L647.032 441.611C644.053 438.398 644.189 437.399 647.032 434.124L686.847 434.124Z"/><path fill="#101478" d="M651.986 392.599C658.631 392.601 703.342 391.618 706.273 393.216C710.635 395.595 708.236 400.01 702.534 399.581L665.929 399.625C662.562 399.628 644.737 401.674 644.754 396.431C644.768 392.259 649.305 392.609 651.986 392.599Z"/><defs><linearGradient id="gradient_2" gradientUnits="userSpaceOnUse" x1="704.68671" y1="354.63599" x2="637.01428" y2="259.84918"><stop offset="0" stop-color="#E0DFF1"/><stop offset="1" stop-color="#FAF7F9"/></linearGradient></defs><path fill="url(#gradient_2)" d="M668.285 251.71C709.301 246.605 747.973 281.355 754.104 321.235C747.718 321.755 744.397 321.752 737.991 321.235C723.9 310.34 706.454 285.798 684.072 289.106C652.836 282.223 630.321 297.023 612.491 321.235C607.31 321.515 601.079 321.292 595.82 321.235C600.08 282.598 629.591 254.445 668.285 251.71Z"/><path fill="#FA8C83" d="M568.718 321.235C570.979 309.81 573.398 296.473 578.37 285.973C602.358 235.309 663.766 210.491 715.148 234.166C747.749 243.519 776.888 288.142 777.655 321.235C774.94 321.238 770.886 321.376 768.284 321.235L763.387 321.235C758.975 307.623 758.92 302.44 751.599 289.106C749.048 285.678 746.733 282.086 744.044 278.686C692.572 213.591 589.362 247.747 587.455 321.235C584.448 321.286 580.595 321.451 577.666 321.235L568.718 321.235Z"/><path fill="#FCFDFC" d="M568.718 321.235C570.979 309.81 573.398 296.473 578.37 285.973C602.358 235.309 663.766 210.491 715.148 234.166C707.936 238.965 632.443 212.281 592.091 283.2C584.296 296.898 583.139 307.779 577.666 321.235L568.718 321.235Z"/><path fill="#FCFDFC" d="M751.599 289.106C758.314 287.815 767.36 315.611 768.284 321.235L763.387 321.235C758.975 307.623 758.92 302.44 751.599 289.106Z"/><path fill="#FCCB2F" d="M740.167 328.911C756.175 328.652 787.681 323.302 795.245 337.886C796.538 357.374 796.088 385.482 794.867 404.498C794.377 417.912 755.874 413.608 745.835 413.574L745.853 380.069C745.873 365.901 746.833 351.471 742.808 337.886L740.167 328.911Z"/><path fill="#FCDC54" d="M740.167 328.911C756.175 328.652 787.681 323.302 795.245 337.886C786.812 338.739 751.033 338.805 742.808 337.886L740.167 328.911Z"/><path fill="#269EF1" d="M554.118 407.52L554.099 362.655C554.068 343.086 548.732 329.422 571.674 328.831C584.1 328.818 596.569 329.085 609.015 328.911L606.335 337.886C602.874 351.278 603.558 363.784 603.567 377.483L603.61 412.178L575.492 412.121C572.758 412.11 564.823 411.866 562.511 412.178C558.742 412.629 556.381 410.075 554.118 407.52Z"/><path fill="#FCFDFC" d="M554.118 407.52L554.099 362.655C554.068 343.086 548.732 329.422 571.674 328.831C584.1 328.818 596.569 329.085 609.015 328.911L606.335 337.886C560.751 336.853 562.482 328.736 562.486 368.955L562.511 412.178C558.742 412.629 556.381 410.075 554.118 407.52Z"/><path fill="#9ED1F8" d="M593.925 420.344L603.61 420.344C608.519 500.742 729.194 515.609 745.835 420.344C749.108 420.415 752.495 420.872 755.758 421.235L755.758 434.124C754.48 468.688 730.091 495.706 695.863 500.616C676.435 488.688 623.824 519.904 598.553 457.348C593.514 444.873 593.891 433.085 593.925 420.344Z"/><path fill="#F1F5FB" d="M572.382 420.344C577.342 420.144 580.95 420.114 585.901 420.344C585.69 462.319 602.979 502.95 650.101 506.217C649.98 511.61 650.063 517.376 650.101 522.778C630.123 517.861 611.493 509.728 596.891 494.759C573.55 470.83 571.943 450.575 572.382 420.344Z"/><path fill="#FCFDFC" d="M695.863 508.633C734.025 503.636 764.055 471.183 763.387 432.228C763.248 424.089 760.819 420.264 768.284 420.344C771.304 420.371 774.665 420.468 777.655 420.344C778.108 471.367 750.031 516.032 695.863 522.778L695.863 516.912L695.863 508.633Z"/><path fill="#9ED1F8" d="M768.284 420.344C771.304 420.371 774.665 420.468 777.655 420.344C778.108 471.367 750.031 516.032 695.863 522.778L695.863 516.912C742.146 512.358 777.944 467.724 768.284 420.344Z"/><path fill="#FA8C83" d="M658.358 506.217L688.084 506.217C688.574 517.045 690.113 547.111 684.072 555.25C674.234 563.857 660.262 559.194 658.936 548.296C657.489 536.405 658.303 518.315 658.358 506.217Z"/><path fill="#101478" d="M195.828 487.439C169.958 456.254 176.608 443.053 176.631 404.355L176.626 268.417C176.516 235.663 176.445 196.931 222.9 196.409L438.967 196.096C471.621 196.103 475.949 192.669 500.98 215.046C511.48 240.751 509.459 243.612 509.452 271.489L509.461 405.858C509.453 443.948 517.951 480.433 476.456 497.458C476.493 511.201 483.321 554.37 462.932 553.31C455.594 552.929 445.97 541.468 441.072 536.64L414.849 511.241C410.883 507.442 404.154 500.635 400.018 497.458L245.967 497.474C221.972 497.489 216.932 498.753 195.828 487.439Z"/><path fill="#F1F5FB" d="M187.731 225.928C202.16 197.614 233.057 203.991 260.048 203.984L417.142 203.981C430.01 203.984 462.975 203.045 473.605 206C474.998 206.803 475.236 206.884 476.456 208C471.994 208.389 481.686 216.9 482.884 225.748C484.444 237.263 483.53 251.444 483.522 263.363L483.523 344.152L483.539 422.454C483.547 444.617 486.742 463.737 474.106 482.49C473.183 483.86 470.952 488.025 470.593 489.574C460.564 498.107 478.094 538.015 462.648 545.597C446.613 534.162 419.379 504.195 403.504 489.574L246.313 489.619C213.701 489.731 193.104 487.271 184.484 450.529C183.953 441.562 184.464 426.284 184.469 416.899L184.466 276.149C184.465 259.948 182.1 241.313 187.731 225.928Z"/><defs><linearGradient id="gradient_3" gradientUnits="userSpaceOnUse" x1="334.67233" y1="544.15076" x2="334.41882" y2="329.15811"><stop offset="0" stop-color="#B8CAF1"/><stop offset="1" stop-color="#F4FDFD"/></linearGradient></defs><path fill="url(#gradient_3)" d="M406.65 357.141C407.804 356.068 437.371 357.867 443.722 356.148C445.785 353.639 445.55 355.159 448.204 355.756L448.698 355.255L448.384 353.794L447.548 354.033C444.993 349.713 446.867 349.598 450.365 349.707C450.71 342.5 460.381 332.009 466.989 329.375C470.414 328.009 471.239 333.606 472.118 333.606C480.018 333.605 481.93 336.852 483.523 344.152L483.539 422.454C483.547 444.617 486.742 463.737 474.106 482.49C473.183 483.86 470.952 488.025 470.593 489.574C460.564 498.107 478.094 538.015 462.648 545.597C446.613 534.162 419.379 504.195 403.504 489.574L246.313 489.619C213.701 489.731 193.104 487.271 184.484 450.529C194.361 448.581 190.27 446.545 189.393 434.068C187.447 406.381 192.922 379.699 196.562 352.523C196.607 352.19 204.708 337.042 204.669 337.066C208.493 339.515 214.695 337.462 219.264 338.978C220.761 338.765 223.087 342.929 223.793 343.088C228.11 344.058 231.432 344.993 235.089 347.808C236.264 350.169 233.827 354.232 237.208 353.394L238.052 353.973L237.993 354.785C239.255 356.28 251.514 355.319 253.838 357.141C246.7 357.123 222.998 353.35 230.645 365.503C229.419 365.072 229.898 365.083 228.669 365.302L228.592 366.386C233.28 374.438 279.259 378.83 288.391 378.697C292.514 378.637 299.649 375.847 303.127 379.006C303.993 383.134 289.394 389.815 285.922 389.379L285.799 388.605C280.298 388.891 273.744 388.354 268.423 389.76L269.38 390.385L269.206 390.321L269.69 390.623C267.525 391.491 267.013 391.879 264.773 391.737C287.878 392.423 352.528 395.083 373.006 391.933L373.599 390.679C376.619 390.686 382.656 391.832 384.58 389.596C378.861 389.793 365.644 388.034 361.146 385.737L361.223 384.917C362.38 384.162 363.227 384.327 364.65 384.305L365.265 384.299C367.331 381.183 364.823 383.351 366.743 380.936C381.06 375.276 396.577 375.307 411.091 371.076C420.986 368.191 446.406 374.656 453.434 365.91C455.898 362.843 455.262 358.924 451.803 357.148L451.834 357.163L451.418 358.038L451.742 359.874C452.206 362.46 452.732 363.593 450.517 365.503C453.339 350.433 419.473 357.273 406.65 357.141Z"/><path fill="#101478" d="M234.025 400.757C231.033 399.964 229.022 399.405 229.594 395.464C232.336 391.051 249.04 392.533 254.589 392.549L441.143 392.609C445.097 392.615 452.888 393.783 449.614 399.306C446.068 401.941 441.498 400.399 436.751 400.757L436.386 401.336C434.543 401.83 428.882 401.675 427.028 401.577C395.645 399.911 370.274 415.738 340.844 414.717C324.593 414.153 304.09 409.151 287.472 407.551C275.746 403.919 260.697 408.857 250.731 404.845C246.925 403.313 237.527 402.727 234.018 401.476L234.025 400.757Z"/><path fill="#F1F5FB" d="M234.025 400.757L416.808 400.713C420.7 400.706 433.495 400.391 436.751 400.757L436.386 401.336C434.543 401.83 428.882 401.675 427.028 401.577C395.645 399.911 370.274 415.738 340.844 414.717C324.593 414.153 304.09 409.151 287.472 407.551C275.746 403.919 260.697 408.857 250.731 404.845C246.925 403.313 237.527 402.727 234.018 401.476L234.025 400.757Z"/><path fill="#101478" d="M319.231 429.673L443.081 429.632C453.533 429.7 454.833 437.921 437.604 437.904L359.75 437.89L248.008 437.926C242.788 437.926 236.162 438.168 231.134 437.264C218.332 427.026 257.223 429.668 259.048 429.668L319.231 429.673Z"/><path fill="#FCFDFC" d="M187.731 225.928C202.16 197.614 233.057 203.991 260.048 203.984L417.142 203.981C430.01 203.984 462.975 203.045 473.605 206C471.976 206.831 421.635 201.168 412.568 204.744C415.216 204.734 420.499 204.554 422.844 205.065L422.73 205.458C385.797 208.802 337.797 205.825 300.052 205.873C297.252 205.868 293.964 205.377 291.268 205.834L291.894 206.499C307.601 206.665 322.031 206.215 338.201 206.94C342.475 207.132 347.591 205.926 351.973 206.06C368.769 205.946 404.833 204.049 420.375 206.685L420.167 206.923C354.525 211.067 279.711 202.488 216.234 209.561C214.416 209.764 191.458 220.965 190.996 222.241L192.355 222.385C192.722 224.462 192.306 226.184 191.229 227.934L190.205 228.571C188.598 227.925 188.944 227.825 187.731 225.928Z"/><path fill="#101478" d="M406.65 357.141C419.473 357.273 453.339 350.433 450.517 365.503C448.181 365.977 424.486 365.526 420.3 365.521L382.913 365.446C379.231 365.474 344.458 369.164 354.727 357.933C357.608 356.618 400.014 357.145 406.65 357.141Z"/><path fill="#101478" d="M253.838 357.141L296.552 357.162C301.236 357.163 315.835 356.262 319.081 358.359C320.574 360.897 319.352 365.254 317.016 365.24C288.562 365.069 259.079 366.362 230.645 365.503C222.998 353.35 246.7 357.123 253.838 357.141Z"/><path fill="#101478" d="M302.008 321.235L426.486 321.184C431.244 321.146 455.228 318.743 449.628 327.343C448.716 328.743 443.88 328.807 442.184 328.911L315.238 328.963C310.841 328.995 296.34 330.004 294.021 327.27C292.51 321.065 297.092 321.325 302.008 321.235Z"/><path fill="#101478" d="M294.676 247.959L432.25 247.953C434.592 247.954 460.268 246.292 448.522 255.523L298.012 255.667C292.198 255.73 290.921 252.36 294.676 247.959Z"/><path fill="#101478" d="M329.699 284.115L407.314 284.097C408.855 284.098 464.369 280.593 448.522 292.031L370.45 292.052C366.804 292.052 312.487 296.41 329.699 284.115Z"/><path fill="#101478" d="M234.025 284.115C253.367 284.016 273.298 283.511 292.524 284.735C295.306 284.912 295.819 291.362 290.125 292.031L250.131 292.096C244.547 292.114 236.838 292.46 231.546 291.816C227.956 291.379 227.82 285.634 234.025 284.115Z"/><path fill="#101478" d="M234.025 321.235C235.776 321.185 275.623 320.346 258.481 328.911C253.367 329.594 231.853 330.853 229.514 325.951C229.302 322.602 231.075 321.839 234.025 321.235Z"/><path fill="#101478" d="M230.645 247.959C236.241 247.916 269.1 244.345 260.082 255.523C253.673 256.666 225.571 260.463 230.645 247.959Z"/><defs><linearGradient id="gradient_4" gradientUnits="userSpaceOnUse" x1="430.9863" y1="361.51804" x2="529.40771" y2="329.99249"><stop offset="0" stop-color="#B1BEE3"/><stop offset="1" stop-color="#DDE6FD"/></linearGradient></defs><path fill="url(#gradient_4)" d="M476.456 208C506.949 215.703 500.983 258.92 500.989 282.381L500.994 420.626C500.985 450.155 506.73 480.74 470.593 489.574C470.952 488.025 473.183 483.86 474.106 482.49C486.742 463.737 483.547 444.617 483.539 422.454L483.523 344.152L483.522 263.363C483.53 251.444 484.444 237.263 482.884 225.748C481.686 216.9 471.994 208.389 476.456 208Z"/><defs><linearGradient id="gradient_5" gradientUnits="userSpaceOnUse" x1="668.58942" y1="719.84229" x2="332.85617" y2="363.08948"><stop offset="0" stop-color="#42B4F4"/><stop offset="1" stop-color="#6ADFFE"/></linearGradient></defs><path fill="url(#gradient_5)" d="M500.98 215.046C517.39 212.603 541.886 218.605 558.184 218.016C535.977 245.971 517.103 276.202 516.749 312.595L516.541 393.571C516.535 400.082 513.163 413.015 522.124 412.396C525.847 410.117 524.291 404.599 525.036 400.757C530.755 418.153 551.093 454.343 567.033 457.422C580.375 497.046 609.161 523.174 650.101 530.469C650.217 544.671 648.43 560.707 665.102 566.614C691.894 576.105 695.914 549 695.863 530.469C725.846 527.64 751.426 510.12 768.284 485.974C771.659 489.169 791.974 473.898 795.245 470.897C804.267 475.332 816.127 458.905 823.582 452.931C832.851 497.766 833.288 531.739 823.582 576.738C779.064 559.228 728.24 571.642 699.471 610.545C690.707 608.946 685.119 608.617 676.209 608.344C676.258 600.431 676.398 592.319 676.209 584.425C672.792 580.38 669.366 578.112 663.846 577.939C603.043 576.035 543.347 587.404 502.284 635.141C472.273 599.278 433.66 583.462 387.802 579.374C380.534 578.726 333.779 576.357 330.011 579.723C326.963 582.447 328.566 601.626 328.514 606.575C294.681 606.164 278.4 618.725 278.188 654.069L278.205 735.795C224.959 675.304 193.246 594.617 195.693 513.789C195.937 505.72 196.562 496.279 195.914 488.413L195.828 487.439C216.932 498.753 221.972 497.489 245.967 497.474L400.018 497.458C404.154 500.635 410.883 507.442 414.849 511.241L441.072 536.64C445.97 541.468 455.594 552.929 462.932 553.31C483.321 554.37 476.493 511.201 476.456 497.458C517.951 480.433 509.453 443.948 509.461 405.858L509.452 271.489C509.459 243.612 511.48 240.751 500.98 215.046Z"/><path fill="#99F98D" d="M721.346 745.093C682.555 711.983 676.458 654.306 707.471 613.818C738.483 573.33 795.757 564.192 837.829 593.019C841.764 595.716 845.492 598.702 848.983 601.953C851.86 604.632 854.569 607.486 857.095 610.497C889.156 648.715 886.569 705.128 851.145 740.251C815.721 775.373 759.288 777.479 721.346 745.093Z"/><path fill="#50DB5C" d="M857.095 610.497C889.156 648.715 886.569 705.128 851.145 740.251C815.721 775.373 759.288 777.479 721.346 745.093L721.911 744.122L721.191 741.511C729.168 734.314 791.961 757.83 834.384 712.582C855.616 690.339 863.568 661.76 860.974 631.503C860.431 625.168 857.014 615.232 857.095 610.497Z"/><path fill="#FCFDFC" d="M721.346 745.093C682.555 711.983 676.458 654.306 707.471 613.818C738.483 573.33 795.757 564.192 837.829 593.019C836.025 593.462 835.207 593.635 834.875 595.8C814.588 586.783 778.785 587.418 758.024 595.533C709.035 614.683 689.755 671.045 709.07 718.179C711.197 723.37 717.662 738.154 721.191 741.511L721.911 744.122L721.346 745.093Z"/><path fill="#FEFBEE" d="M837.829 593.019C841.764 595.716 845.492 598.702 848.983 601.953L847.535 602.648C845.82 602.309 838.536 597.491 835.608 596.136L834.875 595.8C835.207 593.635 836.025 593.462 837.829 593.019Z"/><path fill="#101478" d="M826.616 627.098C833.11 626.705 838.012 627.784 842.457 632.646C855.23 646.615 843.739 655.61 834.596 664.607L777.949 720.606C764 734.408 746.746 715.555 737.991 705.113L737.582 704.771C730.811 699.038 718.492 688.685 718.105 679.339C717.271 669.286 725.184 660.534 735.303 660.489C746.985 660.438 757.148 675.572 765.204 683.49C777.848 672.199 814.788 631.103 826.616 627.098Z"/><path fill="#FCFDFC" d="M828.25 635.141C836.04 634.324 843.409 642.451 838.406 649.148C834.968 653.75 828.844 658.634 824.653 662.921L790.28 697.58C784.555 703.305 778.778 709.331 772.909 714.82C761.371 725.61 745.59 700.825 735.952 694.044C733.113 689.91 715.413 669.632 734.063 668.207C742.226 667.583 757.606 687.82 764.627 693.576L765.204 694.044C771.021 689.881 777.747 682.396 782.971 677.192L809.639 650.811C815.13 645.365 821.366 638.009 828.25 635.141Z"/><defs><linearGradient id="gradient_6" gradientUnits="userSpaceOnUse" x1="613.26379" y1="782.05139" x2="560.51013" y2="601.46307"><stop offset="0" stop-color="#C8E2F4"/><stop offset="1" stop-color="white"/></linearGradient></defs><path fill="url(#gradient_6)" d="M506.357 789.704L506.341 665.526C506.346 642.093 505.379 639.805 524.584 623.849C561.7 593.011 620.717 582.173 668.285 586.522C668.656 591.761 668.336 600.854 668.32 606.381L668.285 767.429C658.749 767.383 649.288 765.961 639.312 765.929C599.322 765.74 550.149 773.848 521.475 803.47C516.008 809.117 511.567 814.708 506.357 820.256C506.563 810.055 506.291 799.891 506.357 789.704Z"/><path fill="#9ED1F8" d="M506.357 789.704C507.322 792.524 506.607 794.864 508.117 798.392C516.701 803.72 559.394 752.217 598.69 756.683C606.758 757.6 614.126 757.947 619.894 764.755C626.385 764.707 633.154 764.148 639.312 765.929C599.322 765.74 550.149 773.848 521.475 803.47C516.008 809.117 511.567 814.708 506.357 820.256C506.563 810.055 506.291 799.891 506.357 789.704Z"/><defs><linearGradient id="gradient_7" gradientUnits="userSpaceOnUse" x1="410.11734" y1="810.94824" x2="425.54007" y2="590.80511"><stop offset="0" stop-color="#BEDEF5"/><stop offset="1" stop-color="white"/></linearGradient></defs><path fill="url(#gradient_7)" d="M337.508 586.522C393.297 586.459 444.456 587.555 487.074 629.88C495.95 638.695 498.164 640.895 498.156 653.465L498.067 819.264C485.211 805.647 474.413 800.417 462.648 789.704C447.885 781.879 433.59 774.6 417.434 769.935C411.104 768.107 402.26 767.793 396.604 765.929C373.296 765.563 360.915 765.953 337.508 770.624L337.508 586.522Z"/><path fill="#9ED1F8" d="M396.604 765.929L397.502 765.246C403.348 766.217 426.515 766.683 426.894 766.843C430.818 762.28 429.843 764.594 439.176 765.929C442.6 769.259 442.174 768.869 443.621 773.456L444.475 773.797C448.297 775.354 449.673 780.343 453.132 783.313C456.205 785.951 460.823 786.613 462.648 789.704C447.885 781.879 433.59 774.6 417.434 769.935C411.104 768.107 402.26 767.793 396.604 765.929Z"/><defs><linearGradient id="gradient_8" gradientUnits="userSpaceOnUse" x1="511.04947" y1="857.72717" x2="508.36118" y2="806.15112"><stop offset="0" stop-color="#FF5842"/><stop offset="1" stop-color="#FDAB96"/></linearGradient></defs><path fill="url(#gradient_8)" d="M473.605 828.772C477.226 835.541 477.523 841.176 483.838 847.044C494.929 857.348 517.768 855.736 523.719 840.342C536.178 808.191 614.878 813.465 641.527 813.465L709.215 813.479C714 813.597 718.083 813.659 722.89 813.479C725.809 856.24 705.183 859.072 668.711 858.938L486.111 858.914L333.698 858.975C321.523 859.051 309.01 860.867 299.255 851.999C292.48 835.583 300.376 827.397 314.076 819.264L313.828 819.037C311.897 818.942 309.519 820.923 308.059 822.109L307.537 822.539L307.236 822.181C307.451 821.501 312.782 815.637 313.798 815.184L310.835 814.476C312.92 814.239 315.295 814.408 317.415 814.476C331.922 813.788 351.266 814.629 366.283 814.473C409.9 814.021 432.09 812.506 473.605 828.772Z"/><path fill="#FD5F54" d="M709.215 813.479C714 813.597 718.083 813.659 722.89 813.479C725.809 856.24 705.183 859.072 668.711 858.938L486.111 858.914C472.947 857.14 454.978 860.09 441.305 858.949C434.389 858.371 423.603 857.595 416.748 857.824C448.144 853.523 448.498 851.491 478.069 857.354C494.047 860.522 509.134 857.378 525.036 857.5C539.347 847.857 555.579 851.51 571.835 851.162C592.459 850.72 613.178 849.407 633.436 848.938C655.639 848.715 679.547 852.882 700.317 842.961C719.033 834.021 721.665 832.013 722.89 814.476C718.621 814.567 713.368 814.499 709.215 813.479Z"/><path fill="#FCFDFC" d="M310.835 814.476C312.92 814.239 315.295 814.408 317.415 814.476C320.662 814.698 324.373 814.775 327.429 815.669L327.688 816.128C324.578 817.619 319.169 817.356 314.076 819.264L313.828 819.037C311.897 818.942 309.519 820.923 308.059 822.109L307.537 822.539L307.236 822.181C307.451 821.501 312.782 815.637 313.798 815.184L310.835 814.476Z"/><path fill="#FCDC54" d="M286.583 819.264C286.967 815.117 286.659 808.861 286.633 804.535L286.552 692.816C286.547 656.159 276.488 612.329 328.514 616.021L328.514 623.976L328.503 757.941C328.506 763.968 325.324 783.687 336.437 780.512C383.182 767.158 426.24 774.625 466.509 802.94C474.366 808.465 485.806 817.428 491.132 825.499C451.181 813.322 429.285 802.731 385.864 805.844C364.782 807.356 315.084 802.085 297.899 810.146C292.302 813.142 291.102 814.701 286.583 819.264Z"/><path fill="#FCFDFC" d="M286.583 819.264C286.967 815.117 286.659 808.861 286.633 804.535L286.552 692.816C286.547 656.159 276.488 612.329 328.514 616.021L328.514 623.976C299.628 625.154 297.885 642.143 297.88 664.292L297.888 771.355C297.89 783.528 298.269 798.155 297.899 810.146C292.302 813.142 291.102 814.701 286.583 819.264Z"/><path fill="#FCCB2F" d="M676.209 616.021L694.576 616.021C692.242 621.84 688.706 627.37 686.436 633.256C669.158 678.063 685.184 726.51 722.89 755.313L722.89 805.869L638.492 805.851C612.599 805.85 583.046 804.129 558.184 810.146C541.077 814.072 528.357 825.486 513.446 825.499C543.19 775.614 616.071 772.544 666.831 774.744C680.011 775.405 676.23 762.418 676.232 751.924L676.209 616.021Z"/><path fill="#FCDC54" d="M483.523 832.835C505.79 835.579 494.607 835.846 517.961 832.835C517.087 835.813 516.719 837.462 515.133 840.19C504.215 850.038 489.563 846.018 483.523 832.835Z"/><path fill="#101478" d="M560.824 153.474C565.127 153.272 611.561 158.441 599.68 168.023C596.699 168.605 563.038 161.518 559.367 159.876C557.282 157.35 559.059 155.563 560.824 153.474Z"/><path fill="#101478" d="M493.236 148.35C501.394 148.297 525.869 147.14 531.459 150.955C533.148 154.309 531.538 155.065 528.827 156C525.888 156.202 476.418 159.931 493.236 148.35Z"/><path fill="#101478" d="M457.367 153.474C463.12 149.985 466.12 158.538 460.793 159.654C450.758 161.756 440.07 163.35 430.113 165.692C418.62 168.885 419.783 153.271 457.367 153.474Z"/><path fill="#101478" d="M147.929 383.882C159.854 384.622 142.287 422.695 140.789 424.616C127.935 422.612 144.948 387.43 147.929 383.882Z"/><path fill="#101478" d="M394.37 168.023C413.315 170.433 372.34 185.321 365.235 188.108C349.193 180.77 389.934 169.4 394.37 168.023Z"/><path fill="#101478" d="M227.35 775.461C227.449 775.474 260.929 799.091 252.008 807.744C250.117 807.548 218.699 785.268 227.35 775.461Z"/><path fill="#101478" d="M890.238 452.931C899.929 452.603 900.204 488.836 897.263 492.187C895.427 492.177 894.666 492.327 893.021 491.486C891.666 489.735 885.174 458.148 890.238 452.931Z"/><path fill="#101478" d="M134.193 593.603C141.655 592.989 145.974 626.219 145.685 628.434C144.776 629.894 143.968 630.018 142.362 630.678C136.126 629.267 131.118 601.913 130.536 595.987C131.401 594.549 132.367 594.494 134.193 593.603Z"/><path fill="#101478" d="M124.579 522.778C126.572 522.756 127.868 522.821 129.49 523.958C130.796 525.84 135.6 556.942 129.507 561.439C122.799 561.758 120.14 527.703 124.579 522.778Z"/><path fill="#101478" d="M153.224 657.884C159.13 658.702 170.601 687.814 171.809 692.61C171.526 694.22 170.465 694.869 169.216 696.021L167.27 695.939C162.512 693.512 152.393 667.81 150.33 661.509L153.224 657.884Z"/><path fill="#101478" d="M895.244 522.778C907.784 520.796 898.277 558.421 897.263 559.675C885.728 561.312 893.444 523.832 895.244 522.778Z"/><path fill="#101478" d="M184.484 720.83C186.154 720.736 214.2 744.906 204.783 755.313C204.253 755.179 177.433 729.273 184.484 720.83Z"/><path fill="#101478" d="M872.514 387.835C879.888 389.459 887.029 417.201 885.846 422.789C884.777 424.084 883.354 424.181 881.65 424.616C877.205 421.055 874.733 405.226 871.547 399.406C868.824 394.431 867.98 391.193 872.514 387.835Z"/><path fill="#101478" d="M129.507 452.931C141.242 454.612 130.549 491.115 129.507 492.187C116.995 489.804 128.786 453.574 129.507 452.931Z"/><path fill="#101478" d="M890.238 589.516C899.212 588.652 894.741 607.804 890.238 611.955C880.674 610.243 888.015 591.248 890.238 589.516Z"/><path fill="#101478" d="M754.104 791.091C761.658 791.946 763.128 800.237 755.758 802.659C747.349 801.751 745.881 794.549 754.104 791.091Z"/></svg>