<?xml version="1.0" encoding="UTF-8" standalone="no"?>
<svg
   width="1024"
   height="1024"
   viewBox="0 0 1024 1024"
   version="1.1"
   id="svg77"
   sodipodi:docname="logo.svg"
   inkscape:version="1.4.3 (1:1.4.3+202512261034+0d15f75042)"
   xmlns:inkscape="http://www.inkscape.org/namespaces/inkscape"
   xmlns:sodipodi="http://sodipodi.sourceforge.net/DTD/sodipodi-0.dtd"
   xmlns="http://www.w3.org/2000/svg"
   xmlns:svg="http://www.w3.org/2000/svg">
  <sodipodi:namedview
     id="namedview77"
     pagecolor="#ffffff"
     bordercolor="#666666"
     borderopacity="1.0"
     inkscape:showpageshadow="2"
     inkscape:pageopacity="0.0"
     inkscape:pagecheckerboard="0"
     inkscape:deskcolor="#d1d1d1"
     inkscape:zoom="0.78808594"
     inkscape:cx="511.36555"
     inkscape:cy="512"
     inkscape:window-width="1860"
     inkscape:window-height="1016"
     inkscape:window-x="60"
     inkscape:window-y="27"
     inkscape:window-maximized="1"
     inkscape:current-layer="svg77" />
  <defs
     id="defs3">
    <linearGradient
       id="gradient_0"
       gradientUnits="userSpaceOnUse"
       x1="781.74371"
       y1="479.01834"
       x2="597.68646"
       y2="194.82216"
       gradientTransform="matrix(0.78856628,0,0,0.78856628,108.28415,104.03263)">
      <stop
         offset="0"
         stop-color="#C2D8F6"
         id="stop2" />
      <stop
         offset="1"
         stop-color="#FFFFFD"
         id="stop3" />
    </linearGradient>
  </defs>
  <defs
     id="defs10">
    <linearGradient
       id="gradient_1"
       gradientUnits="userSpaceOnUse"
       x1="629.58551"
       y1="405.64996"
       x2="612.70758"
       y2="405.93927"
       gradientTransform="matrix(0.78856628,0,0,0.78856628,108.28415,104.03263)">
      <stop
         offset="0"
         stop-color="#FFECEE"
         id="stop9" />
      <stop
         offset="1"
         stop-color="white"
         id="stop10" />
    </linearGradient>
  </defs>
  <defs
     id="defs14">
    <linearGradient
       id="gradient_2"
       gradientUnits="userSpaceOnUse"
       x1="704.68671"
       y1="354.63599"
       x2="637.01428"
       y2="259.84918"
       gradientTransform="matrix(0.78856628,0,0,0.78856628,108.28415,104.03263)">
      <stop
         offset="0"
         stop-color="#E0DFF1"
         id="stop13" />
      <stop
         offset="1"
         stop-color="#FAF7F9"
         id="stop14" />
    </linearGradient>
  </defs>
  <defs
     id="defs29">
    <linearGradient
       id="gradient_3"
       gradientUnits="userSpaceOnUse"
       x1="334.67233"
       y1="544.15076"
       x2="334.41882"
       y2="329.15811"
       gradientTransform="matrix(0.78856628,0,0,0.78856628,108.28415,104.03263)">
      <stop
         offset="0"
         stop-color="#B8CAF1"
         id="stop28" />
      <stop
         offset="1"
         stop-color="#F4FDFD"
         id="stop29" />
    </linearGradient>
  </defs>
  <defs
     id="defs42">
    <linearGradient
       id="gradient_4"
       gradientUnits="userSpaceOnUse"
       x1="430.9863"
       y1="361.51804"
       x2="529.40771"
       y2="329.99249"
       gradientTransform="matrix(0.78856628,0,0,0.78856628,108.28415,104.03263)">
      <stop
         offset="0"
         stop-color="#B1BEE3"
         id="stop41" />
      <stop
         offset="1"
         stop-color="#DDE6FD"
         id="stop42" />
    </linearGradient>
  </defs>
  <defs
     id="defs44">
    <linearGradient
       id="gradient_5"
       gradientUnits="userSpaceOnUse"
       x1="668.58942"
       y1="719.84229"
       x2="332.85617"
       y2="363.08948"
       gradientTransform="matrix(0.78856628,0,0,0.78856628,108.28415,104.03263)">
      <stop
         offset="0"
         stop-color="#42B4F4"
         id="stop43" />
      <stop
         offset="1"
         stop-color="#6ADFFE"
         id="stop44" />
    </linearGradient>
  </defs>
  <defs
     id="defs51">
    <linearGradient
       id="gradient_6"
       gradientUnits="userSpaceOnUse"
       x1="613.26379"
       y1="782.05139"
       x2="560.51013"
       y2="601.46307"
       gradientTransform="matrix(0.78856628,0,0,0.78856628,108.28415,104.03263)">
      <stop
         offset="0"
         stop-color="#C8E2F4"
         id="stop50" />
      <stop
         offset="1"
         stop-color="white"
         id="stop51" />
    </linearGradient>
  </defs>
  <defs
     id="defs53">
    <linearGradient
       id="gradient_7"
       gradientUnits="userSpaceOnUse"
       x1="410.11734"
       y1="810.94824"
       x2="425.54007"
       y2="590.80511"
       gradientTransform="matrix(0.78856628,0,0,0.78856628,108.28415,104.03263)">
      <stop
         offset="0"
         stop-color="#BEDEF5"
         id="stop52" />
      <stop
         offset="1"
         stop-color="white"
         id="stop53" />
    </linearGradient>
  </defs>
  <defs
     id="defs55">
    <linearGradient
       id="gradient_8"
       gradientUnits="userSpaceOnUse"
       x1="511.04947"
       y1="857.72717"
       x2="508.36118"
       y2="806.15112"
       gradientTransform="matrix(0.78856628,0,0,0.78856628,108.28415,104.03263)">
      <stop
         offset="0"
         stop-color="#FF5842"
         id="stop54" />
      <stop
         offset="1"
         stop-color="#FDAB96"
         id="stop55" />
    </linearGradient>
  </defs>
  <g
     id="g77"
     transform="matrix(1.2681242,0,0,1.2681242,-137.31775,-131.92629)">
    <path
       fill="#101478"
       d="m 558.184,218.016 0.553,-0.457 c 5.775,-4.826 10.763,-11.005 16.476,-16.08 63.286,-56.224 157.056,-62.071 226.055,-12.262 78.941,56.985 94.771,168.394 36.481,246.044 -4.512,6.034 -9.633,11.687 -14.167,17.67 9.269,44.835 9.706,78.808 0,123.807 87.548,40.414 85.41,157.822 -3.121,192.984 -27.04,10.74 -64.584,6.321 -88.966,-8.729 l 0.035,42.15 c 0.005,28.972 -2.395,64.539 -41.259,64.268 l -353.499,-0.118 c -26.182,-0.175 -51.287,-1.027 -57.244,-31.664 -1.041,-5.354 -1.475,-6.741 -5.59,-10.13 1.337,-2.066 2.716,-4.35 4.267,-6.235 0.252,-26.688 0.536,-56.841 0,-83.469 -53.246,-60.491 -84.959,-141.178 -82.512,-222.006 0.244,-8.069 0.869,-17.51 0.221,-25.376 l -0.086,-0.974 c -25.87,-31.185 -19.22,-44.386 -19.197,-83.084 l -0.005,-135.938 c -0.11,-32.754 -0.181,-71.486 46.274,-72.008 l 216.067,-0.313 c 32.654,0.007 36.982,-3.427 62.013,18.95 16.41,-2.443 40.906,3.559 57.204,2.97 z m -244.108,601.248 -0.248,-0.227 c -1.931,-0.095 -4.309,1.886 -5.769,3.072 l -0.522,0.43 -0.301,-0.358 c 0.215,-0.68 5.546,-6.544 6.562,-6.997 l -2.963,-0.708 c -19.051,6.557 -32.407,21.861 -11.58,37.523 -6.775,-16.416 1.121,-24.602 14.821,-32.735 z"
       id="path1" />
    <path
       fill="#101478"
       d="m 558.184,218.016 0.553,-0.457 c 5.775,-4.826 10.763,-11.005 16.476,-16.08 63.286,-56.224 157.056,-62.071 226.055,-12.262 78.941,56.985 94.771,168.394 36.481,246.044 -4.512,6.034 -9.633,11.687 -14.167,17.67 -7.455,5.974 -19.315,22.401 -28.337,17.966 -3.271,3.001 -23.586,18.272 -26.961,15.077 -16.858,24.146 -42.438,41.666 -72.421,44.495 0.051,18.531 -3.969,45.636 -30.761,36.145 -16.672,-5.907 -14.885,-21.943 -15.001,-36.145 -40.94,-7.295 -69.726,-33.423 -83.068,-73.047 -15.94,-3.079 -36.278,-39.269 -41.997,-56.665 -0.745,3.842 0.811,9.36 -2.912,11.639 -8.961,0.619 -5.589,-12.314 -5.583,-18.825 l 0.208,-80.976 c 0.354,-36.393 19.228,-66.624 41.435,-94.579 z"
       id="path2" />
    <path
       fill="url(#gradient_0)"
       d="m 558.184,218.016 0.553,-0.457 c 5.775,-4.826 10.763,-11.005 16.476,-16.08 63.286,-56.224 157.056,-62.071 226.055,-12.262 78.941,56.985 94.771,168.394 36.481,246.044 -4.512,6.034 -9.633,11.687 -14.167,17.67 -7.455,5.974 -19.315,22.401 -28.337,17.966 -3.271,3.001 -23.586,18.272 -26.961,15.077 14.222,-19.93 17.797,-41.633 16.792,-65.63 9.859,-1.151 16.389,-5.817 17.662,-16.535 1.02,-8.595 0.85,-63.056 -1.149,-70.142 -1.976,-7.003 -8.85,-10.322 -14.683,-13.635 -14.258,-87.561 -107.043,-133.978 -180.26,-81.089 -27.708,20.015 -40.906,48.961 -45.822,82.292 -17.634,8.36 -14.523,17.994 -14.706,34.898 0.417,24.697 -9.58,60.603 18.37,64.211 -0.181,16.203 -0.705,21.068 2.545,37.078 -15.94,-3.079 -36.278,-39.269 -41.997,-56.665 -0.745,3.842 0.811,9.36 -2.912,11.639 -8.961,0.619 -5.589,-12.314 -5.583,-18.825 l 0.208,-80.976 c 0.354,-36.393 19.228,-66.624 41.435,-94.579 z"
       id="path3"
       style="fill:url(#gradient_0)" />
    <path
       fill="#101478"
       d="m 558.184,218.016 0.553,-0.457 c 5.775,-4.826 10.763,-11.005 16.476,-16.08 63.286,-56.224 157.056,-62.071 226.055,-12.262 78.941,56.985 94.771,168.394 36.481,246.044 -4.512,6.034 -9.633,11.687 -14.167,17.67 -7.455,5.974 -19.315,22.401 -28.337,17.966 0.398,-6.676 10.728,-12.999 15.376,-17.291 104.396,-96.419 47.123,-271.376 -87.731,-287.914 -39.564,-7.409 -99.621,4.983 -130.799,32.609 -28.787,17.939 -57.618,63.814 -65.631,95.483 -2.2,8.695 -1.506,21.582 -1.469,30.955 l 0.085,51.275 c 0.006,5.616 0.416,19.851 -0.04,24.743 -0.745,3.842 0.811,9.36 -2.912,11.639 -8.961,0.619 -5.589,-12.314 -5.583,-18.825 l 0.208,-80.976 c 0.354,-36.393 19.228,-66.624 41.435,-94.579 z"
       id="path4" />
    <path
       fill="#fcfdfc"
       d="m 592.091,198.301 c 31.178,-27.626 91.235,-40.018 130.799,-32.609 l -0.46,1.157 c -12.622,2.462 -62.132,-0.31 -71.573,7.204 -3.259,-4.221 -5.148,-2.425 -5.812,2.056 -6.492,3.336 -34.129,18.013 -37.026,16.927 -1.806,-0.677 4.836,-2.261 5.114,-2.373 1.789,-0.721 0.549,-2.55 1.051,-2.773 9.442,-4.2 7.379,-3.819 -1.467,-1.692 l -0.48,0.661 c -3.572,4.852 -10.168,2.776 -7.156,8.8 -2.412,1.964 -5.916,5.198 -8.693,6.026 l -0.593,-0.27 c 0.801,-1.749 5.989,-5.508 7.185,-7.869 -3.986,1.205 -6.656,3.672 -10.889,4.755 z"
       id="path5" />
    <path
       fill="#fa8c83"
       d="m 612.491,422.736 c -0.535,-2.903 -0.114,-11.897 -0.078,-15.242 l 0.111,-28.557 c -0.021,-9.018 -0.967,-19.939 -0.422,-28.607 3.962,-62.989 95.17,-75.024 119.393,-19.913 9.058,15.819 7.332,74.182 5.86,93.599 -2.377,31.368 -40.045,60.376 -70.693,53.239 -10.146,2.238 -27.429,-7.841 -34.74,-14.442 -11.447,-10.179 -19.209,-24.583 -19.431,-40.077 z"
       id="path6" />
    <path
       fill="#fd5f54"
       d="m 660.745,413.574 c 3.632,-0.372 44.595,-0.772 46.551,-0.166 1.595,1.382 1.291,2.192 1.784,4.65 l 0.577,-0.099 c 9.567,-7.069 -1.283,-22.746 -0.175,-26.354 4.667,-15.201 11.418,-29.245 17.112,-44.001 9.141,-23.691 2.101,-9.948 -0.863,-22.115 1.681,1.712 3.646,4.112 5.764,4.928 9.058,15.819 7.332,74.182 5.86,93.599 -2.377,31.368 -40.045,60.376 -70.693,53.239 4.17,-1.222 18.692,1.549 26.376,-2.951 5.289,-3.096 15.261,-25.99 13.205,-30.218 -5.141,-2.985 -28.025,-1.249 -35.017,-2.475 6.147,-0.13 31.516,0.699 35.872,-0.711 9.035,-9.175 -17.986,-6.75 -20.251,-6.776 2.248,-1.116 20.633,-3.988 22.227,2.625 l 0.145,0.615 c 0.726,-3.575 1.024,-13.541 -1.23,-16.075 -3.707,1.706 -28.36,0.702 -33.26,-0.054 -6.042,-0.015 -36.428,4.284 -27.697,-7.661 4.834,0.133 8.85,0.196 13.713,0 z"
       id="path7" />
    <path
       fill="#101478"
       d="m 660.745,413.574 c 6.67,-0.01 43.594,-0.96 46.632,1.529 4.989,10.43 -25.633,6.136 -32.648,6.132 -6.042,-0.015 -36.428,4.284 -27.697,-7.661 4.834,0.133 8.85,0.196 13.713,0 z"
       id="path8" />
    <path
       fill="#fcfdfc"
       d="m 612.491,422.736 c -0.535,-2.903 -0.114,-11.897 -0.078,-15.242 l 0.111,-28.557 c -0.021,-9.018 -0.967,-19.939 -0.422,-28.607 3.962,-62.989 95.17,-75.024 119.393,-19.913 -2.118,-0.816 -4.083,-3.216 -5.764,-4.928 -32.957,-39.12 -104.465,-20.655 -105.837,36.658 l -0.015,37.143 c -0.025,18.938 -1.527,38.435 8.659,55.369 1.171,1.947 4.208,6.206 3.384,8.154 -11.447,-10.179 -19.209,-24.583 -19.431,-40.077 z"
       id="path9" />
    <path
       fill="url(#gradient_1)"
       d="m 612.491,422.736 c 0.453,-3 0.089,-13.311 0.053,-17.116 l -0.038,-29.206 c -0.027,-2.957 -0.37,-10.892 0.37,-13.312 l 0.295,0.112 0.049,2.747 c -0.049,-5.96 -0.864,-17.3 2.59,-21.3 l -0.411,-2.919 0.469,-0.354 c 0.873,1.401 2.611,28.797 3.28,35.433 0.015,-2.614 -0.255,-13.123 0.746,-14.674 l -0.015,37.143 c -0.025,18.938 -1.527,38.435 8.659,55.369 1.171,1.947 4.208,6.206 3.384,8.154 -11.447,-10.179 -19.209,-24.583 -19.431,-40.077 z"
       id="path10"
       style="fill:url(#gradient_1)" />
    <path
       fill="#fcfdfc"
       d="m 617.5,387.835 0.268,0.112 c 2.621,5.33 2.377,31.238 1.5,38.478 -0.792,-2.711 -0.032,-5.257 -1.058,-6.967 l -0.71,1.777 c 0.243,2.057 0.842,5.738 -0.203,7.469 -1.367,-10.9 1.123,-28.798 0.203,-40.869 z"
       id="path11" />
    <path
       fill="#101478"
       d="m 686.847,434.124 c 2.265,0.026 29.286,-2.399 20.251,6.776 -4.356,1.41 -29.725,0.581 -35.872,0.711 h -24.194 c -2.979,-3.213 -2.843,-4.212 0,-7.487 z"
       id="path12" />
    <path
       fill="#101478"
       d="m 651.986,392.599 c 6.645,0.002 51.356,-0.981 54.287,0.617 4.362,2.379 1.963,6.794 -3.739,6.365 l -36.605,0.044 c -3.367,0.003 -21.192,2.049 -21.175,-3.194 0.014,-4.172 4.551,-3.822 7.232,-3.832 z"
       id="path13" />
    <path
       fill="url(#gradient_2)"
       d="m 668.285,251.71 c 41.016,-5.105 79.688,29.645 85.819,69.525 -6.386,0.52 -9.707,0.517 -16.113,0 -14.091,-10.895 -31.537,-35.437 -53.919,-32.129 -31.236,-6.883 -53.751,7.917 -71.581,32.129 -5.181,0.28 -11.412,0.057 -16.671,0 4.26,-38.637 33.771,-66.79 72.465,-69.525 z"
       id="path14"
       style="fill:url(#gradient_2)" />
    <path
       fill="#fa8c83"
       d="m 568.718,321.235 c 2.261,-11.425 4.68,-24.762 9.652,-35.262 23.988,-50.664 85.396,-75.482 136.778,-51.807 32.601,9.353 61.74,53.976 62.507,87.069 -2.715,0.003 -6.769,0.141 -9.371,0 h -4.897 c -4.412,-13.612 -4.467,-18.795 -11.788,-32.129 -2.551,-3.428 -4.866,-7.02 -7.555,-10.42 -51.472,-65.095 -154.682,-30.939 -156.589,42.549 -3.007,0.051 -6.86,0.216 -9.789,0 z"
       id="path15" />
    <path
       fill="#fcfdfc"
       d="m 568.718,321.235 c 2.261,-11.425 4.68,-24.762 9.652,-35.262 23.988,-50.664 85.396,-75.482 136.778,-51.807 -7.212,4.799 -82.705,-21.885 -123.057,49.034 -7.795,13.698 -8.952,24.579 -14.425,38.035 z"
       id="path16" />
    <path
       fill="#fcfdfc"
       d="m 751.599,289.106 c 6.715,-1.291 15.761,26.505 16.685,32.129 h -4.897 c -4.412,-13.612 -4.467,-18.795 -11.788,-32.129 z"
       id="path17" />
    <path
       fill="#fccb2f"
       d="m 740.167,328.911 c 16.008,-0.259 47.514,-5.609 55.078,8.975 1.293,19.488 0.843,47.596 -0.378,66.612 -0.49,13.414 -38.993,9.11 -49.032,9.076 l 0.018,-33.505 c 0.02,-14.168 0.98,-28.598 -3.045,-42.183 z"
       id="path18" />
    <path
       fill="#fcdc54"
       d="m 740.167,328.911 c 16.008,-0.259 47.514,-5.609 55.078,8.975 -8.433,0.853 -44.212,0.919 -52.437,0 z"
       id="path19" />
    <path
       fill="#269ef1"
       d="m 554.118,407.52 -0.019,-44.865 c -0.031,-19.569 -5.367,-33.233 17.575,-33.824 12.426,-0.013 24.895,0.254 37.341,0.08 l -2.68,8.975 c -3.461,13.392 -2.777,25.898 -2.768,39.597 l 0.043,34.695 -28.118,-0.057 c -2.734,-0.011 -10.669,-0.255 -12.981,0.057 -3.769,0.451 -6.13,-2.103 -8.393,-4.658 z"
       id="path20" />
    <path
       fill="#fcfdfc"
       d="m 554.118,407.52 -0.019,-44.865 c -0.031,-19.569 -5.367,-33.233 17.575,-33.824 12.426,-0.013 24.895,0.254 37.341,0.08 l -2.68,8.975 c -45.584,-1.033 -43.853,-9.15 -43.849,31.069 l 0.025,43.223 c -3.769,0.451 -6.13,-2.103 -8.393,-4.658 z"
       id="path21" />
    <path
       fill="#9ed1f8"
       d="m 593.925,420.344 h 9.685 c 4.909,80.398 125.584,95.265 142.225,0 3.273,0.071 6.66,0.528 9.923,0.891 v 12.889 c -1.278,34.564 -25.667,61.582 -59.895,66.492 -19.428,-11.928 -72.039,19.288 -97.31,-43.268 -5.039,-12.475 -4.662,-24.263 -4.628,-37.004 z"
       id="path22" />
    <path
       fill="#f1f5fb"
       d="m 572.382,420.344 c 4.96,-0.2 8.568,-0.23 13.519,0 -0.211,41.975 17.078,82.606 64.2,85.873 -0.121,5.393 -0.038,11.159 0,16.561 -19.978,-4.917 -38.608,-13.05 -53.21,-28.019 -23.341,-23.929 -24.948,-44.184 -24.509,-74.415 z"
       id="path23" />
    <path
       fill="#fcfdfc"
       d="m 695.863,508.633 c 38.162,-4.997 68.192,-37.45 67.524,-76.405 -0.139,-8.139 -2.568,-11.964 4.897,-11.884 3.02,0.027 6.381,0.124 9.371,0 0.453,51.023 -27.624,95.688 -81.792,102.434 v -5.866 z"
       id="path24" />
    <path
       fill="#9ed1f8"
       d="m 768.284,420.344 c 3.02,0.027 6.381,0.124 9.371,0 0.453,51.023 -27.624,95.688 -81.792,102.434 v -5.866 c 46.283,-4.554 82.081,-49.188 72.421,-96.568 z"
       id="path25" />
    <path
       fill="#fa8c83"
       d="m 658.358,506.217 h 29.726 c 0.49,10.828 2.029,40.894 -4.012,49.033 -9.838,8.607 -23.81,3.944 -25.136,-6.954 -1.447,-11.891 -0.633,-29.981 -0.578,-42.079 z"
       id="path26" />
    <path
       fill="#101478"
       d="m 195.828,487.439 c -25.87,-31.185 -19.22,-44.386 -19.197,-83.084 l -0.005,-135.938 c -0.11,-32.754 -0.181,-71.486 46.274,-72.008 l 216.067,-0.313 c 32.654,0.007 36.982,-3.427 62.013,18.95 10.5,25.705 8.479,28.566 8.472,56.443 l 0.009,134.369 c -0.008,38.09 8.49,74.575 -33.005,91.6 0.037,13.743 6.865,56.912 -13.524,55.852 -7.338,-0.381 -16.962,-11.842 -21.86,-16.67 l -26.223,-25.399 c -3.966,-3.799 -10.695,-10.606 -14.831,-13.783 l -154.051,0.016 c -23.995,0.015 -29.035,1.279 -50.139,-10.035 z"
       id="path27" />
    <path
       fill="#f1f5fb"
       d="m 187.731,225.928 c 14.429,-28.314 45.326,-21.937 72.317,-21.944 l 157.094,-0.003 c 12.868,0.003 45.833,-0.936 56.463,2.019 1.393,0.803 1.631,0.884 2.851,2 -4.462,0.389 5.23,8.9 6.428,17.748 1.56,11.515 0.646,25.696 0.638,37.615 l 0.001,80.789 0.016,78.302 c 0.008,22.163 3.203,41.283 -9.433,60.036 -0.923,1.37 -3.154,5.535 -3.513,7.084 -10.029,8.533 7.501,48.441 -7.945,56.023 -16.035,-11.435 -43.269,-41.402 -59.144,-56.023 l -157.191,0.045 c -32.612,0.112 -53.209,-2.348 -61.829,-39.09 -0.531,-8.967 -0.02,-24.245 -0.015,-33.63 l -0.003,-140.75 c -0.001,-16.201 -2.366,-34.836 3.265,-50.221 z"
       id="path28" />
    <path
       fill="url(#gradient_3)"
       d="m 406.65,357.141 c 1.154,-1.073 30.721,0.726 37.072,-0.993 2.063,-2.509 1.828,-0.989 4.482,-0.392 l 0.494,-0.501 -0.314,-1.461 -0.836,0.239 c -2.555,-4.32 -0.681,-4.435 2.817,-4.326 0.345,-7.207 10.016,-17.698 16.624,-20.332 3.425,-1.366 4.25,4.231 5.129,4.231 7.9,-10e-4 9.812,3.246 11.405,10.546 l 0.016,78.302 c 0.008,22.163 3.203,41.283 -9.433,60.036 -0.923,1.37 -3.154,5.535 -3.513,7.084 -10.029,8.533 7.501,48.441 -7.945,56.023 -16.035,-11.435 -43.269,-41.402 -59.144,-56.023 l -157.191,0.045 c -32.612,0.112 -53.209,-2.348 -61.829,-39.09 9.877,-1.948 5.786,-3.984 4.909,-16.461 -1.946,-27.687 3.529,-54.369 7.169,-81.545 0.045,-0.333 8.146,-15.481 8.107,-15.457 3.824,2.449 10.026,0.396 14.595,1.912 1.497,-0.213 3.823,3.951 4.529,4.11 4.317,0.97 7.639,1.905 11.296,4.72 1.175,2.361 -1.262,6.424 2.119,5.586 l 0.844,0.579 -0.059,0.812 c 1.262,1.495 13.521,0.534 15.845,2.356 -7.138,-0.018 -30.84,-3.791 -23.193,8.362 -1.226,-0.431 -0.747,-0.42 -1.976,-0.201 l -0.077,1.084 c 4.688,8.052 50.667,12.444 59.799,12.311 4.123,-0.06 11.258,-2.85 14.736,0.309 0.866,4.128 -13.733,10.809 -17.205,10.373 l -0.123,-0.774 c -5.501,0.286 -12.055,-0.251 -17.376,1.155 l 0.957,0.625 -0.174,-0.064 0.484,0.302 c -2.165,0.868 -2.677,1.256 -4.917,1.114 23.105,0.686 87.755,3.346 108.233,0.196 l 0.593,-1.254 c 3.02,0.007 9.057,1.153 10.981,-1.083 -5.719,0.197 -18.936,-1.562 -23.434,-3.859 l 0.077,-0.82 c 1.157,-0.755 2.004,-0.59 3.427,-0.612 l 0.615,-0.006 c 2.066,-3.116 -0.442,-0.948 1.478,-3.363 14.317,-5.66 29.834,-5.629 44.348,-9.86 9.895,-2.885 35.315,3.58 42.343,-5.166 2.464,-3.067 1.828,-6.986 -1.631,-8.762 l 0.031,0.015 -0.416,0.875 0.324,1.836 c 0.464,2.586 0.99,3.719 -1.225,5.629 2.822,-15.07 -31.044,-8.23 -43.867,-8.362 z"
       id="path29"
       style="fill:url(#gradient_3)" />
    <path
       fill="#101478"
       d="m 234.025,400.757 c -2.992,-0.793 -5.003,-1.352 -4.431,-5.293 2.742,-4.413 19.446,-2.931 24.995,-2.915 l 186.554,0.06 c 3.954,0.006 11.745,1.174 8.471,6.697 -3.546,2.635 -8.116,1.093 -12.863,1.451 l -0.365,0.579 c -1.843,0.494 -7.504,0.339 -9.358,0.241 -31.383,-1.666 -56.754,14.161 -86.184,13.14 -16.251,-0.564 -36.754,-5.566 -53.372,-7.166 -11.726,-3.632 -26.775,1.306 -36.741,-2.706 -3.806,-1.532 -13.204,-2.118 -16.713,-3.369 z"
       id="path30" />
    <path
       fill="#f1f5fb"
       d="m 234.025,400.757 182.783,-0.044 c 3.892,-0.007 16.687,-0.322 19.943,0.044 l -0.365,0.579 c -1.843,0.494 -7.504,0.339 -9.358,0.241 -31.383,-1.666 -56.754,14.161 -86.184,13.14 -16.251,-0.564 -36.754,-5.566 -53.372,-7.166 -11.726,-3.632 -26.775,1.306 -36.741,-2.706 -3.806,-1.532 -13.204,-2.118 -16.713,-3.369 z"
       id="path31" />
    <path
       fill="#101478"
       d="m 319.231,429.673 123.85,-0.041 c 10.452,0.068 11.752,8.289 -5.477,8.272 l -77.854,-0.014 -111.742,0.036 c -5.22,0 -11.846,0.242 -16.874,-0.662 -12.802,-10.238 26.089,-7.596 27.914,-7.596 z"
       id="path32" />
    <path
       fill="#fcfdfc"
       d="m 187.731,225.928 c 14.429,-28.314 45.326,-21.937 72.317,-21.944 l 157.094,-0.003 c 12.868,0.003 45.833,-0.936 56.463,2.019 -1.629,0.831 -51.97,-4.832 -61.037,-1.256 2.648,-0.01 7.931,-0.19 10.276,0.321 l -0.114,0.393 c -36.933,3.344 -84.933,0.367 -122.678,0.415 -2.8,-0.005 -6.088,-0.496 -8.784,-0.039 l 0.626,0.665 c 15.707,0.166 30.137,-0.284 46.307,0.441 4.274,0.192 9.39,-1.014 13.772,-0.88 16.796,-0.114 52.86,-2.011 68.402,0.625 l -0.208,0.238 c -65.642,4.144 -140.456,-4.435 -203.933,2.638 -1.818,0.203 -24.776,11.404 -25.238,12.68 l 1.359,0.144 c 0.367,2.077 -0.049,3.799 -1.126,5.549 l -1.024,0.637 c -1.607,-0.646 -1.261,-0.746 -2.474,-2.643 z"
       id="path33" />
    <path
       fill="#101478"
       d="m 406.65,357.141 c 12.823,0.132 46.689,-6.708 43.867,8.362 -2.336,0.474 -26.031,0.023 -30.217,0.018 l -37.387,-0.075 c -3.682,0.028 -38.455,3.718 -28.186,-7.513 2.881,-1.315 45.287,-0.788 51.923,-0.792 z"
       id="path34" />
    <path
       fill="#101478"
       d="m 253.838,357.141 42.714,0.021 c 4.684,0.001 19.283,-0.9 22.529,1.197 1.493,2.538 0.271,6.895 -2.065,6.881 -28.454,-0.171 -57.937,1.122 -86.371,0.263 -7.647,-12.153 16.055,-8.38 23.193,-8.362 z"
       id="path35" />
    <path
       fill="#101478"
       d="m 302.008,321.235 124.478,-0.051 c 4.758,-0.038 28.742,-2.441 23.142,6.159 -0.912,1.4 -5.748,1.464 -7.444,1.568 l -126.946,0.052 c -4.397,0.032 -18.898,1.041 -21.217,-1.693 -1.511,-6.205 3.071,-5.945 7.987,-6.035 z"
       id="path36" />
    <path
       fill="#101478"
       d="m 294.676,247.959 137.574,-0.006 c 2.342,0.001 28.018,-1.661 16.272,7.57 l -150.51,0.144 c -5.814,0.063 -7.091,-3.307 -3.336,-7.708 z"
       id="path37" />
    <path
       fill="#101478"
       d="m 329.699,284.115 77.615,-0.018 c 1.541,0.001 57.055,-3.504 41.208,7.934 l -78.072,0.021 c -3.646,0 -57.963,4.358 -40.751,-7.937 z"
       id="path38" />
    <path
       fill="#101478"
       d="m 234.025,284.115 c 19.342,-0.099 39.273,-0.604 58.499,0.62 2.782,0.177 3.295,6.627 -2.399,7.296 l -39.994,0.065 c -5.584,0.018 -13.293,0.364 -18.585,-0.28 -3.59,-0.437 -3.726,-6.182 2.479,-7.701 z"
       id="path39" />
    <path
       fill="#101478"
       d="m 234.025,321.235 c 1.751,-0.05 41.598,-0.889 24.456,7.676 -5.114,0.683 -26.628,1.942 -28.967,-2.96 -0.212,-3.349 1.561,-4.112 4.511,-4.716 z"
       id="path40" />
    <path
       fill="#101478"
       d="m 230.645,247.959 c 5.596,-0.043 38.455,-3.614 29.437,7.564 -6.409,1.143 -34.511,4.94 -29.437,-7.564 z"
       id="path41" />
    <path
       fill="url(#gradient_4)"
       d="m 476.456,208 c 30.493,7.703 24.527,50.92 24.533,74.381 l 0.005,138.245 c -0.009,29.529 5.736,60.114 -30.401,68.948 0.359,-1.549 2.59,-5.714 3.513,-7.084 12.636,-18.753 9.441,-37.873 9.433,-60.036 l -0.016,-78.302 -0.001,-80.789 c 0.008,-11.919 0.922,-26.1 -0.638,-37.615 -1.198,-8.848 -10.89,-17.359 -6.428,-17.748 z"
       id="path42"
       style="fill:url(#gradient_4)" />
    <path
       fill="url(#gradient_5)"
       d="m 500.98,215.046 c 16.41,-2.443 40.906,3.559 57.204,2.97 -22.207,27.955 -41.081,58.186 -41.435,94.579 l -0.208,80.976 c -0.006,6.511 -3.378,19.444 5.583,18.825 3.723,-2.279 2.167,-7.797 2.912,-11.639 5.719,17.396 26.057,53.586 41.997,56.665 13.342,39.624 42.128,65.752 83.068,73.047 0.116,14.202 -1.671,30.238 15.001,36.145 26.792,9.491 30.812,-17.614 30.761,-36.145 29.983,-2.829 55.563,-20.349 72.421,-44.495 3.375,3.195 23.69,-12.076 26.961,-15.077 9.022,4.435 20.882,-11.992 28.337,-17.966 9.269,44.835 9.706,78.808 0,123.807 -44.518,-17.51 -95.342,-5.096 -124.111,33.807 -8.764,-1.599 -14.352,-1.928 -23.262,-2.201 0.049,-7.913 0.189,-16.025 0,-23.919 -3.417,-4.045 -6.843,-6.313 -12.363,-6.486 -60.803,-1.904 -120.499,9.465 -161.562,57.202 -30.011,-35.863 -68.624,-51.679 -114.482,-55.767 -7.268,-0.648 -54.023,-3.017 -57.791,0.349 -3.048,2.724 -1.445,21.903 -1.497,26.852 -33.833,-0.411 -50.114,12.15 -50.326,47.494 l 0.017,81.726 c -53.246,-60.491 -84.959,-141.178 -82.512,-222.006 0.244,-8.069 0.869,-17.51 0.221,-25.376 l -0.086,-0.974 c 21.104,11.314 26.144,10.05 50.139,10.035 l 154.051,-0.016 c 4.136,3.177 10.865,9.984 14.831,13.783 l 26.223,25.399 c 4.898,4.828 14.522,16.289 21.86,16.67 20.389,1.06 13.561,-42.109 13.524,-55.852 41.495,-17.025 32.997,-53.51 33.005,-91.6 l -0.009,-134.369 c 0.007,-27.877 2.028,-30.738 -8.472,-56.443 z"
       id="path44"
       style="fill:url(#gradient_5)" />
    <path
       fill="#99f98d"
       d="m 721.346,745.093 c -38.791,-33.11 -44.888,-90.787 -13.875,-131.275 31.012,-40.488 88.286,-49.626 130.358,-20.799 3.935,2.697 7.663,5.683 11.154,8.934 2.877,2.679 5.586,5.533 8.112,8.544 32.061,38.218 29.474,94.631 -5.95,129.754 -35.424,35.122 -91.857,37.228 -129.799,4.842 z"
       id="path45" />
    <path
       fill="#50db5c"
       d="m 857.095,610.497 c 32.061,38.218 29.474,94.631 -5.95,129.754 -35.424,35.122 -91.857,37.228 -129.799,4.842 l 0.565,-0.971 -0.72,-2.611 c 7.977,-7.197 70.77,16.319 113.193,-28.929 21.232,-22.243 29.184,-50.822 26.59,-81.079 -0.543,-6.335 -3.96,-16.271 -3.879,-21.006 z"
       id="path46" />
    <path
       fill="#fcfdfc"
       d="m 721.346,745.093 c -38.791,-33.11 -44.888,-90.787 -13.875,-131.275 31.012,-40.488 88.286,-49.626 130.358,-20.799 -1.804,0.443 -2.622,0.616 -2.954,2.781 -20.287,-9.017 -56.09,-8.382 -76.851,-0.267 -48.989,19.15 -68.269,75.512 -48.954,122.646 2.127,5.191 8.592,19.975 12.121,23.332 l 0.72,2.611 z"
       id="path47" />
    <path
       fill="#fefbee"
       d="m 837.829,593.019 c 3.935,2.697 7.663,5.683 11.154,8.934 l -1.448,0.695 c -1.715,-0.339 -8.999,-5.157 -11.927,-6.512 l -0.733,-0.336 c 0.332,-2.165 1.15,-2.338 2.954,-2.781 z"
       id="path48" />
    <path
       fill="#101478"
       d="m 826.616,627.098 c 6.494,-0.393 11.396,0.686 15.841,5.548 12.773,13.969 1.282,22.964 -7.861,31.961 l -56.647,55.999 C 764,734.408 746.746,715.555 737.991,705.113 l -0.409,-0.342 c -6.771,-5.733 -19.09,-16.086 -19.477,-25.432 -0.834,-10.053 7.079,-18.805 17.198,-18.85 11.682,-0.051 21.845,15.083 29.901,23.001 12.644,-11.291 49.584,-52.387 61.412,-56.392 z"
       id="path49" />
    <path
       fill="#fcfdfc"
       d="m 828.25,635.141 c 7.79,-0.817 15.159,7.31 10.156,14.007 -3.438,4.602 -9.562,9.486 -13.753,13.773 L 790.28,697.58 c -5.725,5.725 -11.502,11.751 -17.371,17.24 -11.538,10.79 -27.319,-13.995 -36.957,-20.776 -2.839,-4.134 -20.539,-24.412 -1.889,-25.837 8.163,-0.624 23.543,19.613 30.564,25.369 l 0.577,0.468 c 5.817,-4.163 12.543,-11.648 17.767,-16.852 l 26.668,-26.381 c 5.491,-5.446 11.727,-12.802 18.611,-15.67 z"
       id="path50" />
    <path
       fill="url(#gradient_6)"
       d="m 506.357,789.704 -0.016,-124.178 c 0.005,-23.433 -0.962,-25.721 18.243,-41.677 37.116,-30.838 96.133,-41.676 143.701,-37.327 0.371,5.239 0.051,14.332 0.035,19.859 l -0.035,161.048 c -9.536,-0.046 -18.997,-1.468 -28.973,-1.5 -39.99,-0.189 -89.163,7.919 -117.837,37.541 -5.467,5.647 -9.908,11.238 -15.118,16.786 0.206,-10.201 -0.066,-20.365 0,-30.552 z"
       id="path51"
       style="fill:url(#gradient_6)" />
    <path
       fill="#9ed1f8"
       d="m 506.357,789.704 c 0.965,2.82 0.25,5.16 1.76,8.688 8.584,5.328 51.277,-46.175 90.573,-41.709 8.068,0.917 15.436,1.264 21.204,8.072 6.491,-0.048 13.26,-0.607 19.418,1.174 -39.99,-0.189 -89.163,7.919 -117.837,37.541 -5.467,5.647 -9.908,11.238 -15.118,16.786 0.206,-10.201 -0.066,-20.365 0,-30.552 z"
       id="path52" />
    <path
       fill="url(#gradient_7)"
       d="m 337.508,586.522 c 55.789,-0.063 106.948,1.033 149.566,43.358 8.876,8.815 11.09,11.015 11.082,23.585 l -0.089,165.799 c -12.856,-13.617 -23.654,-18.847 -35.419,-29.56 -14.763,-7.825 -29.058,-15.104 -45.214,-19.769 -6.33,-1.828 -15.174,-2.142 -20.83,-4.006 -23.308,-0.366 -35.689,0.024 -59.096,4.695 z"
       id="path53"
       style="fill:url(#gradient_7)" />
    <path
       fill="#9ed1f8"
       d="m 396.604,765.929 0.898,-0.683 c 5.846,0.971 29.013,1.437 29.392,1.597 3.924,-4.563 2.949,-2.249 12.282,-0.914 3.424,3.33 2.998,2.94 4.445,7.527 l 0.854,0.341 c 3.822,1.557 5.198,6.546 8.657,9.516 3.073,2.638 7.691,3.3 9.516,6.391 -14.763,-7.825 -29.058,-15.104 -45.214,-19.769 -6.33,-1.828 -15.174,-2.142 -20.83,-4.006 z"
       id="path54" />
    <path
       fill="url(#gradient_8)"
       d="m 473.605,828.772 c 3.621,6.769 3.918,12.404 10.233,18.272 11.091,10.304 33.93,8.692 39.881,-6.702 12.459,-32.151 91.159,-26.877 117.808,-26.877 l 67.688,0.014 c 4.785,0.118 8.868,0.18 13.675,0 2.919,42.761 -17.707,45.593 -54.179,45.459 l -182.6,-0.024 -152.413,0.061 c -12.175,0.076 -24.688,1.892 -34.443,-6.976 -6.775,-16.416 1.121,-24.602 14.821,-32.735 l -0.248,-0.227 c -1.931,-0.095 -4.309,1.886 -5.769,3.072 l -0.522,0.43 -0.301,-0.358 c 0.215,-0.68 5.546,-6.544 6.562,-6.997 l -2.963,-0.708 c 2.085,-0.237 4.46,-0.068 6.58,0 14.507,-0.688 33.851,0.153 48.868,-0.003 43.617,-0.452 65.807,-1.967 107.322,14.299 z"
       id="path55"
       style="fill:url(#gradient_8)" />
    <path
       fill="#fd5f54"
       d="m 709.215,813.479 c 4.785,0.118 8.868,0.18 13.675,0 2.919,42.761 -17.707,45.593 -54.179,45.459 l -182.6,-0.024 c -13.164,-1.774 -31.133,1.176 -44.806,0.035 -6.916,-0.578 -17.702,-1.354 -24.557,-1.125 31.396,-4.301 31.75,-6.333 61.321,-0.47 15.978,3.168 31.065,0.024 46.967,0.146 14.311,-9.643 30.543,-5.99 46.799,-6.338 20.624,-0.442 41.343,-1.755 61.601,-2.224 22.203,-0.223 46.111,3.944 66.881,-5.977 18.716,-8.94 21.348,-10.948 22.573,-28.485 -4.269,0.091 -9.522,0.023 -13.675,-0.997 z"
       id="path56" />
    <path
       fill="#fcfdfc"
       d="m 310.835,814.476 c 2.085,-0.237 4.46,-0.068 6.58,0 3.247,0.222 6.958,0.299 10.014,1.193 l 0.259,0.459 c -3.11,1.491 -8.519,1.228 -13.612,3.136 l -0.248,-0.227 c -1.931,-0.095 -4.309,1.886 -5.769,3.072 l -0.522,0.43 -0.301,-0.358 c 0.215,-0.68 5.546,-6.544 6.562,-6.997 z"
       id="path57" />
    <path
       fill="#fcdc54"
       d="m 286.583,819.264 c 0.384,-4.147 0.076,-10.403 0.05,-14.729 l -0.081,-111.719 c -0.005,-36.657 -10.064,-80.487 41.962,-76.795 v 7.955 l -0.011,133.965 c 0.003,6.027 -3.179,25.746 7.934,22.571 46.745,-13.354 89.803,-5.887 130.072,22.428 7.857,5.525 19.297,14.488 24.623,22.559 -39.951,-12.177 -61.847,-22.768 -105.268,-19.655 -21.082,1.512 -70.78,-3.759 -87.965,4.302 -5.597,2.996 -6.797,4.555 -11.316,9.118 z"
       id="path58" />
    <path
       fill="#fcfdfc"
       d="m 286.583,819.264 c 0.384,-4.147 0.076,-10.403 0.05,-14.729 l -0.081,-111.719 c -0.005,-36.657 -10.064,-80.487 41.962,-76.795 v 7.955 c -28.886,1.178 -30.629,18.167 -30.634,40.316 l 0.008,107.063 c 0.002,12.173 0.381,26.8 0.011,38.791 -5.597,2.996 -6.797,4.555 -11.316,9.118 z"
       id="path59" />
    <path
       fill="#fccb2f"
       d="m 676.209,616.021 h 18.367 c -2.334,5.819 -5.87,11.349 -8.14,17.235 -17.278,44.807 -1.252,93.254 36.454,122.057 v 50.556 l -84.398,-0.018 c -25.893,-10e-4 -55.446,-1.722 -80.308,4.295 -17.107,3.926 -29.827,15.34 -44.738,15.353 29.744,-49.885 102.625,-52.955 153.385,-50.755 13.18,0.661 9.399,-12.326 9.401,-22.82 z"
       id="path60" />
    <path
       fill="#fcdc54"
       d="m 483.523,832.835 c 22.267,2.744 11.084,3.011 34.438,0 -0.874,2.978 -1.242,4.627 -2.828,7.355 -10.918,9.848 -25.57,5.828 -31.61,-7.355 z"
       id="path61" />
    <path
       fill="#101478"
       d="m 560.824,153.474 c 4.303,-0.202 50.737,4.967 38.856,14.549 -2.981,0.582 -36.642,-6.505 -40.313,-8.147 -2.085,-2.526 -0.308,-4.313 1.457,-6.402 z"
       id="path62" />
    <path
       fill="#101478"
       d="m 493.236,148.35 c 8.158,-0.053 32.633,-1.21 38.223,2.605 1.689,3.354 0.079,4.11 -2.632,5.045 -2.939,0.202 -52.409,3.931 -35.591,-7.65 z"
       id="path63" />
    <path
       fill="#101478"
       d="m 457.367,153.474 c 5.753,-3.489 8.753,5.064 3.426,6.18 -10.035,2.102 -20.723,3.696 -30.68,6.038 -11.493,3.193 -10.33,-12.421 27.254,-12.218 z"
       id="path64" />
    <path
       fill="#101478"
       d="m 147.929,383.882 c 11.925,0.74 -5.642,38.813 -7.14,40.734 -12.854,-2.004 4.159,-37.186 7.14,-40.734 z"
       id="path65" />
    <path
       fill="#101478"
       d="m 394.37,168.023 c 18.945,2.41 -22.03,17.298 -29.135,20.085 -16.042,-7.338 24.699,-18.708 29.135,-20.085 z"
       id="path66" />
    <path
       fill="#101478"
       d="m 227.35,775.461 c 0.099,0.013 33.579,23.63 24.658,32.283 -1.891,-0.196 -33.309,-22.476 -24.658,-32.283 z"
       id="path67" />
    <path
       fill="#101478"
       d="m 890.238,452.931 c 9.691,-0.328 9.966,35.905 7.025,39.256 -1.836,-0.01 -2.597,0.14 -4.242,-0.701 -1.355,-1.751 -7.847,-33.338 -2.783,-38.555 z"
       id="path68" />
    <path
       fill="#101478"
       d="m 134.193,593.603 c 7.462,-0.614 11.781,32.616 11.492,34.831 -0.909,1.46 -1.717,1.584 -3.323,2.244 -6.236,-1.411 -11.244,-28.765 -11.826,-34.691 0.865,-1.438 1.831,-1.493 3.657,-2.384 z"
       id="path69" />
    <path
       fill="#101478"
       d="m 124.579,522.778 c 1.993,-0.022 3.289,0.043 4.911,1.18 1.306,1.882 6.11,32.984 0.017,37.481 -6.708,0.319 -9.367,-33.736 -4.928,-38.661 z"
       id="path70" />
    <path
       fill="#101478"
       d="m 153.224,657.884 c 5.906,0.818 17.377,29.93 18.585,34.726 -0.283,1.61 -1.344,2.259 -2.593,3.411 l -1.946,-0.082 c -4.758,-2.427 -14.877,-28.129 -16.94,-34.43 z"
       id="path71" />
    <path
       fill="#101478"
       d="m 895.244,522.778 c 12.54,-1.982 3.033,35.643 2.019,36.897 -11.535,1.637 -3.819,-35.843 -2.019,-36.897 z"
       id="path72" />
    <path
       fill="#101478"
       d="m 184.484,720.83 c 1.67,-0.094 29.716,24.076 20.299,34.483 -0.53,-0.134 -27.35,-26.04 -20.299,-34.483 z"
       id="path73" />
    <path
       fill="#101478"
       d="m 872.514,387.835 c 7.374,1.624 14.515,29.366 13.332,34.954 -1.069,1.295 -2.492,1.392 -4.196,1.827 -4.445,-3.561 -6.917,-19.39 -10.103,-25.21 -2.723,-4.975 -3.567,-8.213 0.967,-11.571 z"
       id="path74" />
    <path
       fill="#101478"
       d="m 129.507,452.931 c 11.735,1.681 1.042,38.184 0,39.256 -12.512,-2.383 -0.721,-38.613 0,-39.256 z"
       id="path75" />
    <path
       fill="#101478"
       d="m 890.238,589.516 c 8.974,-0.864 4.503,18.288 0,22.439 -9.564,-1.712 -2.223,-20.707 0,-22.439 z"
       id="path76" />
    <path
       fill="#101478"
       d="m 754.104,791.091 c 7.554,0.855 9.024,9.146 1.654,11.568 -8.409,-0.908 -9.877,-8.11 -1.654,-11.568 z"
       id="path77" />
  </g>
</svg>
